<svg xmlns="http://www.w3.org/2000/svg" width="30" height="30" viewBox="0 0 30 30">
    <g id="prefix__specials_icon" data-name="specials icon" transform="translate(-557 -273)">
        <path id="prefix__Rectangle_210" d="M0 0H30V30H0z" data-name="Rectangle 210" transform="translate(557 273)" style="fill:transparent"/>
        <path id="prefix__specials" d="M2738 13126.617l10.648-10.27 8.089 8.379-10.65 10.274zm23.042-2.143c.071-4.475-.135-6.158-4.6-7.508l.179-.512c4.722 1.67 5.044 3.295 4.969 8.029zm-12.043-8.684l9.376-.791-.239 2c-.31-.131-.644-.264-1-.395a.658.658 0 1 0-.66.625.642.642 0 0 0 .337-.092c.453.166.867.33 1.244.492l-.807 6.719z" transform="translate(-2178 -12837)" style="fill:#fff"/>
    </g>
</svg>
