<svg xmlns="http://www.w3.org/2000/svg" width="30" height="30" viewBox="0 0 30 30">
    <g id="prefix__payment" transform="translate(53 24)">
        <path id="prefix__Rectangle_210" d="M0 0H30V30H0z" data-name="Rectangle 210" transform="translate(-53 -24)" style="fill:transparent"/>
        <g id="prefix__payment-2" data-name="payment" transform="translate(-49.197 -20.876)">
            <path id="prefix__Path_623" d="M21.23 13.859a.567.567 0 0 1 .106.507l-1.851 7.142a.492.492 0 0 1-.6.353l-1.317-.343-.953-.247a8.492 8.492 0 0 1-4.231-2.59 1.215 1.215 0 0 1-2.2-.093 1.217 1.217 0 0 1-2.223-.577 1.215 1.215 0 0 1-1.941-1.173l.449-1.73a.461.461 0 0 1 .553-.326l2.788.725-2.01-2.18a1.4 1.4 0 0 1-.158-1.72 1.369 1.369 0 0 1 1.471-.565 1.363 1.363 0 0 1 .457.208l4.155 3.012a1.118 1.118 0 0 0 1.29.015 1.167 1.167 0 0 0 .457-.677l1.1-4.242a3.062 3.062 0 0 1 .305.062 3.029 3.029 0 0 1 1.6 1.039zm-15.073-.74a2.721 2.721 0 0 1 .353-2.285 2.75 2.75 0 0 1 2.95-1.107 2.717 2.717 0 0 1 .916.432l3.81 2.752L15.279 8.7 2.476 5.38l-1.454 5.59a.791.791 0 0 0 .567.966zM4.2 1.9a.791.791 0 0 0-.966.567L2.85 3.942l12.8 3.324.382-1.479a.791.791 0 0 0-.567-.966z" data-name="Path 623" style="fill:#fff"/>
        </g>
    </g>
</svg>
